<?xml version="1.0" encoding="utf-8"?>
<!-- Generated by IcoMoon.io -->
<!DOCTYPE svg PUBLIC "-//W3C//DTD SVG 1.1//EN" "http://www.w3.org/Graphics/SVG/1.1/DTD/svg11.dtd">
<svg version="1.1" xmlns="http://www.w3.org/2000/svg" xmlns:xlink="http://www.w3.org/1999/xlink" width="1024" height="1024" viewBox="0 0 1024 1024">
<g id="icomoon-ignore">
</g>
<path d="M922 1024c0 0-820 0-820 0-56 0-102-46-102-102 0 0 0-820 0-820 0-56 46-102 102-102 0 0 820 0 820 0 56 0 102 46 102 102 0 0 0 820 0 820 0 56-46 102-102 102zM844 250c-24 12-50 26-86 32-78-98-272-20-236 122-132-10-214-72-282-142-36 60-4 158 42 184-20 0-42-6-56-16 4 82 46 118 106 138-14 0-36 6-56 0 20 56 62 92 128 98-46 40-132 66-200 56 62 36 128 66 220 62 226-10 374-174 380-410 26-20 52-42 56-66-20 10-46 14-72 20 26-20 46-42 56-78z"></path>
</svg>
